<svg id="Слой_7" data-name="Слой 7" xmlns="http://www.w3.org/2000/svg" viewBox="0 0 64 64"><defs><style>.cls-1{opacity:0.35;}.cls-2,.cls-3{fill:#f2d4b6;}.cls-3,.cls-4{stroke:#000;stroke-miterlimit:10;stroke-width:0.25px;}.cls-4{fill:#93bee5;}.cls-5{fill:#ffb16a;}</style></defs><g class="cls-1"><path class="cls-2" d="M39.85,48.84c-4.8,0-10.68-2.57-15.72-6.88a28.78,28.78,0,0,1-8.46-11.52c-1.45-4-1.2-7.41.71-9.64a8.08,8.08,0,0,1,6.39-2.51c4.8,0,10.68,2.57,15.72,6.88,8.23,7,11.71,16.53,7.75,21.16A8.09,8.09,0,0,1,39.85,48.84Z"/><path d="M22.77,18.16v.25c4.78,0,10.62,2.56,15.64,6.85,8.18,7,11.65,16.41,7.73,21a8,8,0,0,1-6.29,2.47c-4.78,0-10.62-2.56-15.64-6.85-8.18-7-11.65-16.41-7.73-21a8,8,0,0,1,6.29-2.47v-.25m0,0a8.19,8.19,0,0,0-6.48,2.56c-4,4.69-.54,14.24,7.76,21.34C29.29,46.54,35.2,49,39.85,49a8.19,8.19,0,0,0,6.48-2.56c4-4.69.54-14.24-7.76-21.34-5.24-4.48-11.15-6.91-15.8-6.91Z"/><path class="cls-3" d="M25.46,27.83s7.19-15.71,17.27-10c11.11,6.31-2.55,20-2.55,20"/><circle class="cls-4" cx="38.49" cy="25.34" r="4.1"/><path d="M38,23.22a1.59,1.59,0,0,0-1.42,1.59,2.19,2.19,0,0,0,.94,1.86,1.82,1.82,0,0,0,2.08,0,2,2,0,0,0,1-2c-.14-.7-1.07-2-1.86-1.29-.24.21.11.56.35.35s.49.15.6.28a1.85,1.85,0,0,1,.43.79,1.54,1.54,0,0,1-.78,1.44,1.32,1.32,0,0,1-1.45.08,1.71,1.71,0,0,1-.8-1.2c-.08-.6.23-1.35.91-1.39.32,0,.32-.52,0-.5Z"/><path d="M38.08,24.39a.08.08,0,0,1,0,0l0,.09a.45.45,0,0,0,0,.2.33.33,0,0,0,0,.13.87.87,0,0,0,.09.11.39.39,0,0,0,.1.08l.09,0,0,0h.24l.09-.05a.56.56,0,0,0,.25-.46.89.89,0,0,0,0-.14.61.61,0,0,0,0-.12.55.55,0,0,0-.21-.19.66.66,0,0,0-.31-.06.54.54,0,0,0-.3.1s0,0-.07.06a.41.41,0,0,0,0,.09.25.25,0,0,0,0,.19.26.26,0,0,0,.15.12.25.25,0,0,0,.19,0l.07,0-.06,0a.17.17,0,0,1,.1,0h0l.09,0-.06,0,.07,0-.05,0s0,0,.05.05l0-.05,0,.05,0-.06a.14.14,0,0,1,0,.07v-.07a.11.11,0,0,1,0,.08v-.07a.19.19,0,0,1,0,.08l0-.06a.09.09,0,0,1,0,.06l0-.05a.12.12,0,0,1,0,.05l0,0,0,0,.06,0h0l-.05,0,.06,0,0,0,0,0,0,0,0,.05,0-.06,0,.06s0,0,0-.06v.09a.09.09,0,0,1,0-.05l0,.06,0,0a.27.27,0,0,0,0-.2.27.27,0,0,0-.11-.15.27.27,0,0,0-.2,0l-.06,0-.09.09Z"/><path d="M39.3,24.81a.34.34,0,0,0-.17.05.18.18,0,0,0-.07.05l0,0a.6.6,0,0,0-.09.15.5.5,0,0,0,0,.12v0a.28.28,0,0,0,0,.09.36.36,0,0,0,0,.11.53.53,0,0,0,.13.13h0a.32.32,0,0,0,.09,0,.25.25,0,0,0,.12,0h.1l.08,0a.42.42,0,0,0,.18-.17.42.42,0,0,0,0-.31l0,0a.25.25,0,0,0,0-.09.35.35,0,0,0,0-.08l0,0-.08-.06-.1,0h-.14a.31.31,0,0,0-.13,0s0,0,0,.05l0,0,0,.05L39,25a.14.14,0,0,0,0,.08.1.1,0,0,0,0,.09.23.23,0,0,0,.07.18.24.24,0,0,0,.18.07.22.22,0,0,0,.17-.07l.15-.16-.18.07h0l.05,0-.06,0,0,0,0,0,0,0,0-.05,0,.05,0-.06s0,0,0,0v-.09s0,0,0,0l0-.06s0,0,0,0l0-.06a.08.08,0,0,1,0,0l.05,0,0,0,.06,0h0a0,0,0,0,1,0,0h0l.06,0,0,0,.06,0,0,0,0,.05s0,0,0,0l0,.06s0,0,0,0v.08s0,0,0-.05l0,.06,0,0,0,.05,0,0-.05,0s0,0,0,0l-.06,0h0l.1,0,.08-.05a.31.31,0,0,0,.07-.18.26.26,0,0,0-.07-.18l0,0a.28.28,0,0,0-.13,0Z"/><path d="M37.46,25.42a1.35,1.35,0,0,0,1.07.95.25.25,0,0,0,.19,0,.22.22,0,0,0,.12-.15.26.26,0,0,0,0-.19.19.19,0,0,0-.15-.11l-.14,0-.07,0h0c.07,0,0,0,0,0l-.14-.07-.06,0h0l0,0-.1-.1s0,0,0-.06,0,0,0,0L38,25.39v0c0,.07,0,0,0,0a.64.64,0,0,1,0-.07.25.25,0,0,0-.48.13Z"/><circle class="cls-5" cx="21.79" cy="21.87" r="1.26"/><circle class="cls-5" cx="18.64" cy="25.02" r="1.26"/><circle class="cls-5" cx="18.64" cy="28.17" r="1.26"/><circle class="cls-5" cx="19.27" cy="31.32" r="1.26"/><circle class="cls-5" cx="20.53" cy="34.47" r="1.26"/><circle class="cls-5" cx="22.42" cy="37" r="1.26"/><circle class="cls-5" cx="24.94" cy="38.89" r="1.26"/><circle class="cls-5" cx="27.46" cy="40.78" r="1.26"/><circle class="cls-5" cx="30.61" cy="42.67" r="1.26"/><circle class="cls-5" cx="33.76" cy="43.93" r="1.26"/><circle class="cls-5" cx="36.91" cy="45.19" r="1.26"/><circle class="cls-5" cx="40.06" cy="45.19" r="1.26"/><circle class="cls-5" cx="42.58" cy="43.93" r="1.26"/><circle class="cls-5" cx="45.1" cy="40.78" r="1.26"/><circle class="cls-5" cx="45.1" cy="38.26" r="1.26"/><circle class="cls-5" cx="44.47" cy="35.11" r="1.26"/></g></svg>