<svg id="Слой_1" data-name="Слой 1" xmlns="http://www.w3.org/2000/svg" viewBox="0 0 64 64"><defs><style>.cls-1{fill:#fff;}.cls-2{fill:#666;}</style></defs><rect class="cls-1" x="1" y="3" width="47" height="9" rx="1.62"/><path class="cls-2" d="M46.38,4a.62.62,0,0,1,.62.62v5.76a.62.62,0,0,1-.62.62H2.62A.62.62,0,0,1,2,10.38V4.62A.62.62,0,0,1,2.62,4H46.38m0-2H2.62A2.62,2.62,0,0,0,0,4.62v5.76A2.62,2.62,0,0,0,2.62,13H46.38A2.62,2.62,0,0,0,49,10.38V4.62A2.62,2.62,0,0,0,46.38,2Z"/><rect class="cls-1" x="1" y="17" width="47" height="9" rx="1.62"/><path class="cls-2" d="M46.38,18a.62.62,0,0,1,.62.62v5.76a.62.62,0,0,1-.62.62H2.62A.62.62,0,0,1,2,24.38V18.62A.62.62,0,0,1,2.62,18H46.38m0-2H2.62A2.62,2.62,0,0,0,0,18.62v5.76A2.62,2.62,0,0,0,2.62,27H46.38A2.62,2.62,0,0,0,49,24.38V18.62A2.62,2.62,0,0,0,46.38,16Z"/><rect class="cls-1" x="1" y="31" width="24.03" height="9" rx="1.62"/><path class="cls-2" d="M23.41,32a.62.62,0,0,1,.62.62v5.76a.62.62,0,0,1-.62.62H2.62A.62.62,0,0,1,2,38.38V32.62A.62.62,0,0,1,2.62,32H23.41m0-2H2.62A2.62,2.62,0,0,0,0,32.62v5.76A2.62,2.62,0,0,0,2.62,41H23.41A2.62,2.62,0,0,0,26,38.38V32.62A2.62,2.62,0,0,0,23.41,30Z"/><rect class="cls-1" x="1" y="46" width="35.52" height="9" rx="1.62"/><path class="cls-2" d="M34.9,47a.62.62,0,0,1,.62.62v5.76a.62.62,0,0,1-.62.62H2.62A.62.62,0,0,1,2,53.38V47.62A.62.62,0,0,1,2.62,47H34.9m0-2H2.62A2.62,2.62,0,0,0,0,47.62v5.76A2.62,2.62,0,0,0,2.62,56H34.9a2.62,2.62,0,0,0,2.62-2.62V47.62A2.62,2.62,0,0,0,34.9,45Z"/><path class="cls-1" d="M39.4,44.65a8.33,8.33,0,1,1,8.32-8.33A8.34,8.34,0,0,1,39.4,44.65Z"/><path class="cls-2" d="M39.4,29a7.33,7.33,0,1,1-7.33,7.32A7.33,7.33,0,0,1,39.4,29m0-2a9.33,9.33,0,1,0,9.32,9.32A9.33,9.33,0,0,0,39.4,27Z"/><path class="cls-1" d="M53.83,57.27a.89.89,0,0,1-.7-.35l-9-11.86a.89.89,0,0,1-.17-.65.83.83,0,0,1,.34-.57l.87-.66a.83.83,0,0,1,.52-.18.9.9,0,0,1,.7.34l9,11.87a.87.87,0,0,1-.17,1.22l-.86.66A.86.86,0,0,1,53.83,57.27Z"/><path class="cls-2" d="M45.66,44.05l8.86,11.66-.67.51L45,44.56l.67-.51m0-2a1.92,1.92,0,0,0-1.13.38l-.87.66a1.88,1.88,0,0,0-.35,2.63l9,11.86a1.89,1.89,0,0,0,1.49.74A1.83,1.83,0,0,0,55,57.89l.87-.66a1.89,1.89,0,0,0,.36-2.63l-9-11.86A1.86,1.86,0,0,0,45.68,42Z"/></svg>